# xmcd
#
# Track frame offsets:
# 182
# 21300
# 39930
# 59205
# 77780
# 102485
# 121425
# 141595
# 164070
#
# Disc length: 2411 seconds
#
# Revision: 5
# Processed by: cddbd v1.5.2PL0 Copyright (c) Steve Scherf et al.
# Submitted via: Axialis_AX_CDPlayer 2.6
#
DISCID=88096909
DTITLE=Count Basie And The Kansas City 7 - Secrets
DYEAR=1962
DGENRE=Jazz
TTITLE0=Oh, Lady Be Good
TTITLE1=Secrets
TTITLE2=I Want A Little Girl
TTITLE3=Shoe Shine Boy
TTITLE4=Count's Place
TTITLE5=Senator Whitehead
TTITLE6=Tally-Ho, Mr. Basie!
TTITLE7=What'cha Talkin'?
TTITLE8=Trey of Hearts
EXTD=
EXTT0=
EXTT1=
EXTT2=
EXTT3=
EXTT4=
EXTT5=
EXTT6=
EXTT7=
EXTT8=
PLAYORDER=
